<svg xmlns="http://www.w3.org/2000/svg" xmlns:xlink="http://www.w3.org/1999/xlink"><defs><style>
    .sprite-symbol-usage {display: none;}
    .sprite-symbol-usage:target {display: inline;}
  </style><symbol fill="currentColor" viewBox="0 0 13 8" id="arrow"><path class="cls-1" d="M11.47 0 6.5 4.95 1.53 0 0 1.53 6.5 8 13 1.53 11.47 0Z" /></symbol><symbol fill="currentColor" viewBox="0 0 29.45 24.81" id="card"><path class="cls-1" d="M29.01 8.33c-.39-.49-.97-.77-1.6-.77h-5.67L18.66.52a.866.866 0 1 0-1.59.69l2.77 6.35H9.58l2.77-6.35c.19-.44 0-.95-.45-1.14-.44-.19-.95 0-1.14.45L7.68 7.56H2.04a2.029 2.029 0 0 0-1.99 2.46l3.03 13.23c.21.92 1.03 1.57 1.99 1.57h19.31c.96 0 1.78-.65 1.99-1.57l3.03-13.23c.14-.59 0-1.21-.39-1.69Zm-4.63 14.76H5.07c-.15 0-.27-.1-.31-.23L1.73 9.63c-.02-.1.02-.18.05-.23.03-.04.11-.12.25-.12h4.92l-.23.52c-.19.44 0 .95.45 1.14a.855.855 0 0 0 1.13-.45l.53-1.21H20.6l.53 1.21c.14.32.46.52.79.52a.866.866 0 0 0 .79-1.21l-.23-.52h4.92c.14 0 .22.07.25.12.04.05.08.13.05.23l-3.03 13.23c-.03.13-.16.23-.31.23Z" /></symbol><symbol fill="none" viewBox="0 0 40 40" id="close"><circle cx="20" cy="20" r="18.5" fill="#fff" stroke="#0F0F0F" stroke-width="3" /><path stroke="#000" stroke-width="2" d="m13.707 13.293 12.728 12.728M26.293 13.293 13.565 26.02" /></symbol><symbol fill="none" viewBox="0 0 116 134" id="decor"><path d="M58 0 0 33.5v67L58 134l58-33.5v-67L58 0Zm45.179 93.172-45.266 26.085-45.18-26.085V40.828L58 14.656l45.266 26.172v52.344h-.087Z" fill="#CECECE" /><path d="M92.326 46.246V86.89l-24.018 14.165V78.621h-21.29v22.435L23 86.891V46.246L47.018 32.08v23.05h21.29v-23.05l24.018 14.165Z" fill="#CECECE" /></symbol><symbol fill="currentColor" viewBox="0 0 25 17" id="email"><path class="cls-1" d="M2.34 0h20.31c1.29 0 2.34.95 2.34 2.13v12.75c0 1.17-1.05 2.12-2.34 2.12H2.34C1.05 17 0 16.05 0 14.88V2.13C0 .95 1.05 0 2.34 0Zm0 1.42c-.11 0-.21.02-.3.05L12.5 9.69l10.46-8.22a.943.943 0 0 0-.3-.05H2.34Zm0 14.17h20.31c.43 0 .78-.32.78-.71V2.97L13 11.16c-.15.12-.33.17-.51.17s-.36-.06-.51-.17L1.56 2.97v11.91c0 .39.35.71.78.71Z" /><path d="m23.64 2.56-.32.25L12.89 11l10.75-8.44Zm0 0v.41m0-.41v.41m0 0v11.91c0 .52-.46.91-.98.91H2.34c-.52 0-.98-.39-.98-.91V2.56m22.28.41L1.36 2.56m0 0 .32.25m-.32-.25.32.25m0 0L12.11 11c.11.09.25.13.39.13s.28-.04.39-.13L1.69 2.81Zm.23-1.18-.28-.22.33-.13c.11-.04.24-.07.37-.07h20.31c.13 0 .26.02.37.07l.33.13-.28.22L12.6 9.85l-.12.1-.12-.1L1.92 1.63ZM22.66.2H2.34C1.14.2.2 1.08.2 2.13v12.75c0 1.04.94 1.92 2.14 1.92h20.31c1.2 0 2.14-.88 2.14-1.92V2.13c0-1.04-.94-1.93-2.14-1.93Z" /><path class="cls-1" d="M22.66 17H2.34C1.05 17 0 16.05 0 14.88V2.12C0 .95 1.05 0 2.34 0h20.31c1.29 0 2.34.95 2.34 2.12v12.75c0 1.17-1.05 2.12-2.34 2.12ZM2.34.4C1.27.4.4 1.17.4 2.12v12.75c0 .95.87 1.72 1.94 1.72h20.31c1.07 0 1.94-.77 1.94-1.72V2.12c0-.95-.87-1.72-1.94-1.72H2.34Zm20.31 15.58H2.34c-.65 0-1.18-.5-1.18-1.11V2.56h.2v-.2l1.19.02-1.31-1.03.66-.25c.14-.05.29-.08.44-.08h20.31c.15 0 .3.03.44.08l.66.25-1.77 1.39 1.07.02.46-.36.12.16h.2v12.32c0 .61-.53 1.11-1.18 1.11ZM1.56 2.97v11.91c0 .39.35.71.78.71h20.31c.43 0 .78-.32.78-.71V3.16h-.24l-10.18 8a.87.87 0 0 1-1.02 0L1.56 2.97ZM10.9 9.8l1.33 1.05c.06.05.13.08.21.08L10.89 9.8ZM1.97 2.77l10.92 7.98 9.68-7.6-1.07-.02-8.99 7.07-9.44-7.41-1.11-.02Zm1.77.03 8.76 6.89 8.36-6.57L3.73 2.8Zm-.52-.41 18.15.34 1.6-1.25c-.1-.04-.2-.05-.3-.05H2.34c-.1 0-.2.02-.3.05s1.17.92 1.17.92Z" /></symbol><symbol fill="currentColor" viewBox="0 0 519.25 800" id="facebook"><path class="cls-1" d="m449.59 329.96-12.88 94.01H282.02v329.02h-94.01V423.97H47v-94.01h141.01V243.8c0-119.53 73.42-196.8 187.12-196.8 48.7 0 79.06 2.59 96.59 4.94l-1.36 89.02-72.29.14c-1.97-.19-49.07-3.85-83.06 27.36-21.9 20.07-33 48.93-33 85.69v75.82h167.57ZM346.56 203.29c18.52-17.25 47.38-15.37 49.49-15.28l120.61-.05L519.24 14 501.1 9.53C489.44 6.66 453.77-.01 375.13-.01c-140.02 0-234.12 98-234.12 243.81v39.15H0v188.01h141.01v329.02h188.01V470.96h148.62l25.81-188.01H329.02v-28.81c0-22.89 5.92-40 17.53-50.86Z" /></symbol><symbol fill="none" viewBox="0 0 28 25" id="heart"><path d="M14 25c-.399 0-.783-.145-1.082-.408a325.333 325.333 0 0 0-3.184-2.748l-.005-.005c-2.821-2.412-5.257-4.496-6.952-6.548C.882 12.997 0 10.821 0 8.445c0-2.309.789-4.44 2.221-5.998C3.671.869 5.66 0 7.822 0c1.616 0 3.096.513 4.4 1.524A9.02 9.02 0 0 1 14 3.388a9.021 9.021 0 0 1 1.779-1.864C17.082.513 18.562 0 20.179 0c2.162 0 4.15.869 5.6 2.447C27.211 4.006 28 6.136 28 8.445c0 2.376-.882 4.552-2.777 6.846-1.695 2.052-4.13 4.136-6.951 6.548-.964.824-2.056 1.758-3.19 2.753A1.64 1.64 0 0 1 14 25ZM7.822 1.646c-1.699 0-3.26.68-4.395 1.916C2.275 4.817 1.64 6.551 1.64 8.445c0 1.999.74 3.786 2.4 5.796 1.604 1.942 3.99 3.983 6.752 6.346l.006.004c.965.826 2.06 1.762 3.2 2.762a383.634 383.634 0 0 1 3.21-2.767c2.763-2.362 5.148-4.403 6.752-6.345 1.66-2.01 2.4-3.797 2.4-5.796 0-1.894-.635-3.628-1.787-4.883a5.897 5.897 0 0 0-4.395-1.916c-1.244 0-2.387.397-3.396 1.18-.9.698-1.525 1.58-1.893 2.198A1.026 1.026 0 0 1 14 5.53c-.368 0-.7-.19-.89-.507-.366-.618-.993-1.5-1.892-2.198-1.009-.783-2.152-1.18-3.396-1.18Z" fill="#0F0F0F" /></symbol><symbol fill="currentColor" viewBox="0 0 23 24" id="instagram"><g class="cls-2"><path class="cls-1" d="M16.87-.1H6.23C2.73-.1-.1 2.86-.1 6.5v11.01c0 3.63 2.83 6.6 6.33 6.6h10.55c3.49 0 6.33-2.96 6.33-6.6V6.5c-.01-3.6-2.79-6.54-6.24-6.6Zm4.68 17.6c0 2.76-2.15 4.99-4.78 4.99H6.23c-2.63 0-4.78-2.23-4.78-4.99v-11c0-2.76 2.15-4.99 4.78-4.99h10.55c2.63 0 4.78 2.23 4.78 4.99v11.01Z" /><path class="cls-1" d="M16.77 24.2H6.23c-3.54 0-6.43-3-6.43-6.7v-11c0-3.7 2.88-6.7 6.43-6.7h10.75c3.44.11 6.23 3.1 6.23 6.7v11.01c0 3.69-2.88 6.7-6.42 6.7ZM6.23 0C2.79 0 0 2.91 0 6.5v11.01c0 3.58 2.79 6.5 6.23 6.5h10.55c3.43 0 6.23-2.91 6.23-6.5V6.5C23 2.97 20.25.06 16.87 0H6.22Zm10.55 22.59H6.23c-2.69 0-4.88-2.28-4.88-5.09v-11c0-2.81 2.19-5.09 4.88-5.09h10.55c2.69 0 4.88 2.28 4.88 5.09v11.01c0 2.81-2.19 5.09-4.88 5.09ZM6.23 1.61c-2.58 0-4.68 2.19-4.68 4.89v11.01c0 2.7 2.1 4.89 4.68 4.89h10.55c2.58 0 4.68-2.19 4.68-4.89V6.5c0-2.7-2.1-4.89-4.68-4.89H6.23Z" /><path class="cls-1" d="M11.5 5.34c-3.53 0-6.39 2.99-6.39 6.66s2.86 6.66 6.39 6.66 6.39-2.99 6.39-6.66-2.86-6.66-6.39-6.66Zm0 11.72c-2.66 0-4.84-2.26-4.84-5.06s2.18-5.06 4.84-5.06S16.34 9.2 16.34 12s-2.18 5.06-4.84 5.06Z" /><path class="cls-1" d="M11.5 18.76c-3.58 0-6.49-3.03-6.49-6.76s2.91-6.76 6.49-6.76 6.49 3.03 6.49 6.76-2.91 6.76-6.49 6.76Zm0-13.32c-3.47 0-6.29 2.94-6.29 6.56s2.82 6.56 6.29 6.56 6.29-2.94 6.29-6.56-2.82-6.56-6.29-6.56Zm0 11.72c-2.72 0-4.94-2.31-4.94-5.16s2.22-5.16 4.94-5.16 4.94 2.31 4.94 5.16-2.22 5.16-4.94 5.16Zm0-10.11c-2.61 0-4.74 2.22-4.74 4.96s2.13 4.96 4.74 4.96 4.74-2.22 4.74-4.96-2.13-4.96-4.74-4.96ZM17.94 3.01c-1.08 0-1.96.92-1.96 2.04s.87 2.04 1.96 2.04 1.96-.92 1.96-2.04-.87-2.04-1.96-2.04Zm0 2.47c-.22 0-.41-.19-.41-.43s.19-.43.41-.43.41.19.41.43-.19.43-.41.43Z" /><path class="cls-1" d="M17.94 7.19c-1.13 0-2.06-.96-2.06-2.14s.92-2.14 2.06-2.14S20 3.87 20 5.05s-.92 2.14-2.06 2.14Zm0-4.08c-1.02 0-1.86.87-1.86 1.94s.83 1.94 1.86 1.94 1.86-.87 1.86-1.94-.83-1.94-1.86-1.94Zm0 2.47c-.28 0-.51-.24-.51-.53s.23-.53.51-.53.51.24.51.53-.23.53-.51.53Zm0-.86c-.17 0-.31.15-.31.33s.14.33.31.33.31-.15.31-.33-.14-.33-.31-.33Z" /></g></symbol><symbol fill="currentColor" viewBox="0 0 24 24" id="phone"><path class="cls-1" d="M4.86 15.95c2.38 2.83 5.24 5.06 8.5 6.63 1.24.59 2.91 1.28 4.76 1.4h.34c1.24 0 2.24-.43 3.06-1.31l.02-.02c.29-.35.62-.66.96-.99.23-.22.47-.46.7-.7 1.06-1.1 1.06-2.51-.01-3.58l-3-2.99c-.51-.53-1.12-.81-1.76-.81s-1.25.28-1.78.8l-1.79 1.78c-.16-.09-.33-.18-.49-.26-.2-.1-.38-.19-.55-.3-1.63-1.03-3.11-2.37-4.52-4.1-.71-.9-1.19-1.66-1.53-2.43.47-.42.91-.87 1.33-1.3.15-.15.3-.31.46-.46.54-.54.83-1.16.83-1.79s-.28-1.25-.83-1.79L8.07 2.25c-.17-.17-.34-.34-.51-.52-.33-.34-.67-.69-1.01-1-.51-.5-1.12-.77-1.76-.77S3.55.22 3.01.73L1.14 2.59C.49 3.31.1 4.13.02 5.08c-.09 1.19.12 2.45.69 3.98.87 2.36 2.19 4.56 4.15 6.9ZM1.24 5.18c.06-.66.31-1.21.79-1.69l1.86-1.85c.29-.28.61-.42.92-.42s.61.14.9.43c.33.31.65.63.99.97.17.17.34.35.52.53l1.49 1.48c.31.31.47.62.47.93s-.16.62-.47.93c-.15.15-.31.31-.46.47-.46.47-.9.91-1.38 1.33l-.02.02c-.41.41-.35.81-.25 1.1 0 .01 0 .02.01.04.38.92.92 1.8 1.75 2.84 1.5 1.84 3.08 3.27 4.81 4.37.21.14.44.25.66.36.2.1.38.19.55.3.02.01.03.02.05.03.16.08.32.12.48.12.4 0 .66-.25.74-.34l1.87-1.86c.29-.29.6-.44.91-.44.38 0 .69.23.88.44l3.01 2.99c.6.6.59 1.24-.01 1.87-.21.22-.43.44-.66.66-.35.34-.71.69-1.04 1.08-.57.62-1.26.91-2.14.91h-.26c-1.64-.1-3.16-.74-4.3-1.28a24.29 24.29 0 0 1-8.09-6.32c-1.86-2.23-3.11-4.31-3.94-6.54-.51-1.37-.71-2.47-.63-3.47Z" /></symbol><symbol fill="none" viewBox="0 0 25 25" id="search"><path d="M11.01 0C4.938 0 0 4.939 0 11.01c0 6.07 4.939 11.009 11.01 11.009 6.07 0 11.009-4.939 11.009-11.01C22.019 4.94 17.08 0 11.009 0Zm0 19.986c-4.95 0-8.977-4.027-8.977-8.977s4.027-8.976 8.976-8.976c4.95 0 8.977 4.027 8.977 8.976 0 4.95-4.027 8.977-8.977 8.977Z" fill="#0F0F0F" /><path d="m24.702 23.265-5.827-5.826a1.016 1.016 0 1 0-1.437 1.437l5.827 5.826a1.012 1.012 0 0 0 1.437 0 1.016 1.016 0 0 0 0-1.437Z" fill="#0F0F0F" /></symbol><symbol fill="currentColor" viewBox="0 0 46.43 40.63" id="telegram"><path class="cls-1" d="m18.22 26.77-.77 11.34c1.1 0 1.57-.5 2.15-1.09l5.15-5.17 10.67 8.21c1.96 1.15 3.34.54 3.87-1.89l7-34.47C46.91.66 45.24-.53 43.34.22L2.16 16.77c-2.81 1.15-2.77 2.79-.48 3.54l10.53 3.44L36.67 7.68c1.15-.8 2.2-.36 1.34.44L18.23 26.77Z" /></symbol><symbol fill="none" viewBox="0 0 22 25" id="user"><path d="M10.718 12.043c1.654 0 3.087-.594 4.257-1.764 1.17-1.171 1.764-2.603 1.764-4.258 0-1.654-.593-3.086-1.764-4.257C13.805.594 12.372 0 10.718 0 9.063 0 7.63.593 6.46 1.764 5.29 2.934 4.696 4.367 4.696 6.02c0 1.655.594 3.087 1.764 4.258 1.171 1.17 2.604 1.764 4.258 1.764ZM7.496 2.8c.899-.898 1.952-1.335 3.222-1.335s2.323.437 3.221 1.335c.899.898 1.335 1.952 1.335 3.221 0 1.27-.436 2.323-1.335 3.222-.898.898-1.952 1.335-3.221 1.335-1.27 0-2.323-.437-3.222-1.335-.898-.899-1.335-1.952-1.335-3.222 0-1.269.437-2.323 1.335-3.221ZM21.253 19.224a14.887 14.887 0 0 0-.202-1.58 12.45 12.45 0 0 0-.389-1.588 7.846 7.846 0 0 0-.653-1.481 5.58 5.58 0 0 0-.984-1.284 4.341 4.341 0 0 0-1.415-.888 4.889 4.889 0 0 0-1.805-.327c-.255 0-.502.105-.979.415-.293.191-.636.413-1.02.657-.327.21-.77.405-1.318.582a5.239 5.239 0 0 1-1.614.26 5.242 5.242 0 0 1-1.613-.26c-.547-.177-.991-.373-1.318-.581-.38-.243-.723-.464-1.02-.658-.477-.31-.724-.415-.979-.415-.65 0-1.257.11-1.805.327a4.337 4.337 0 0 0-1.415.889 5.583 5.583 0 0 0-.984 1.283 7.856 7.856 0 0 0-.653 1.481A12.474 12.474 0 0 0 .7 17.644c-.1.56-.169 1.092-.203 1.58-.033.478-.05.975-.05 1.477 0 1.305.415 2.361 1.233 3.14.808.77 1.877 1.159 3.177 1.159h12.038c1.3 0 2.369-.39 3.177-1.159.818-.778 1.233-1.835 1.233-3.14 0-.504-.017-1.001-.05-1.477Zm-2.192 3.556c-.534.508-1.243.755-2.167.755H4.856c-.924 0-1.633-.247-2.167-.755-.523-.498-.778-1.179-.778-2.08 0-.468.016-.93.047-1.374.03-.436.091-.915.183-1.423.09-.502.205-.974.341-1.4a6.4 6.4 0 0 1 .532-1.205 4.14 4.14 0 0 1 .723-.948c.251-.24.568-.437.941-.585a3.37 3.37 0 0 1 1.154-.223c.051.028.143.08.29.176.302.197.649.42 1.033.666.432.275.99.524 1.655.74.681.22 1.375.331 2.064.331.69 0 1.384-.111 2.064-.331.667-.216 1.224-.465 1.657-.74.393-.252.73-.47 1.031-.666.149-.096.24-.148.291-.175.421.01.81.086 1.154.222.373.148.69.345.941.585.269.257.512.576.723.948.222.39.401.796.532 1.205.137.427.252.898.342 1.4.091.51.153.988.183 1.423.031.442.047.905.047 1.375 0 .9-.255 1.58-.778 2.079Z" fill="#0F0F0F" /></symbol><symbol fill="currentColor" viewBox="0 0 52.83 55.71" id="viber"><path class="cls-1" d="M46.87 5.43C45.49 4.15 39.9.09 27.43.04c0 0-14.7-.88-21.86 5.69C1.59 9.71.19 15.55.03 22.79c-.15 7.24-.34 20.79 12.73 24.47h.01v5.61s-.1 2.27 1.4 2.73c1.81.57 2.87-1.16 4.6-3.02.95-1.02 2.25-2.52 3.24-3.67 8.94.75 15.81-.97 16.59-1.22 1.81-.59 12.02-1.89 13.68-15.45C54 18.25 51.45 9.41 46.86 5.42Zm1.51 25.8c-1.4 11.32-9.68 12.03-11.21 12.52-.65.21-6.69 1.71-14.27 1.22 0 0-5.66 6.82-7.42 8.6-.58.58-1.21.52-1.2-.62 0-.75.04-9.32.04-9.32C3.24 40.56 3.9 29.02 4.02 22.98c.12-6.04 1.26-10.99 4.64-14.32C14.72 3.15 27.2 3.97 27.2 3.97c10.54.04 15.59 3.22 16.77 4.29 3.88 3.33 5.86 11.29 4.42 22.97Zm-15.12-8.79c.04.94-1.36 1-1.4.07-.12-2.39-1.24-3.56-3.55-3.69-.94-.05-.85-1.46.08-1.4 3.04.16 4.72 1.9 4.87 5.03Zm2.21 1.23c.11-4.61-2.77-8.23-8.25-8.63-.92-.07-.83-1.47.1-1.4 6.31.46 9.67 4.8 9.55 10.06-.01.94-1.43.89-1.4-.03Zm5.11 1.46c.01.94-1.4.95-1.4.01-.07-8.87-5.97-13.7-13.14-13.75-.92-.01-.92-1.4 0-1.4 8.02.05 14.47 5.59 14.55 15.15ZM39.35 35.8v.02c-1.18 2.07-3.37 4.35-5.64 3.62l-.02-.03c-2.3-.64-7.7-3.43-11.12-6.15a28.695 28.695 0 0 1-4.61-4.61c-1.12-1.4-2.25-3.07-3.35-5.07-2.32-4.19-2.83-6.06-2.83-6.06-.73-2.26 1.55-4.46 3.62-5.64h.02c1-.52 1.96-.35 2.6.42 0 0 1.35 1.61 1.93 2.4.54.74 1.27 1.93 1.65 2.59.66 1.19.25 2.39-.4 2.89l-1.31 1.04c-.66.53-.58 1.52-.58 1.52s1.94 7.32 9.17 9.17c0 0 .99.09 1.52-.58l1.04-1.31c.5-.65 1.71-1.07 2.89-.4 1.6.9 3.63 2.31 4.98 3.58.76.62.94 1.57.41 2.57Z" /></symbol><symbol fill="currentColor" viewBox="0 0 24 24" id="whatsapp"><path class="cls-1" d="M20.41 3.49A11.83 11.83 0 0 0 11.99 0C5.44 0 .1 5.34.1 11.89c0 2.09.55 4.14 1.59 5.95L0 24l6.31-1.66c1.74.95 3.69 1.45 5.68 1.45C18.54 23.79 24 18.45 24 11.9c0-3.18-1.35-6.16-3.59-8.41ZM12 21.79c-1.78 0-3.52-.48-5.04-1.38l-.36-.21-3.74.98 1-3.65-.24-.38a9.87 9.87 0 0 1-1.51-5.26c0-5.45 4.44-9.88 9.89-9.88 2.64 0 5.12 1.03 6.99 2.9C20.85 6.78 22 9.26 22 11.9c0 5.45-4.55 9.89-10 9.89Zm5.42-7.4c-.29-.15-1.76-.87-2.03-.96-.27-.1-.47-.15-.67.15-.2.3-.77.96-.94 1.17-.17.2-.35.22-.64.07-1.75-.87-2.89-1.56-4.04-3.54-.31-.53.31-.49.87-1.62.1-.2.05-.37-.03-.52-.08-.15-.67-1.61-.92-2.21-.24-.58-.49-.5-.67-.51-.17-.01-.37-.01-.57-.01s-.52.08-.79.37c-.27.3-1.04 1.02-1.04 2.48s1.07 2.88 1.21 3.07c.15.2 2.09 3.2 5.08 4.49 1.89.81 2.62.88 3.57.74.57-.09 1.76-.72 2-1.41.25-.7.25-1.29.17-1.41-.07-.13-.27-.21-.56-.35Z" /></symbol></defs><use id="arrow-usage" xlink:href="#arrow" class="sprite-symbol-usage" /><use id="card-usage" xlink:href="#card" class="sprite-symbol-usage" /><use id="close-usage" xlink:href="#close" class="sprite-symbol-usage" /><use id="decor-usage" xlink:href="#decor" class="sprite-symbol-usage" /><use id="email-usage" xlink:href="#email" class="sprite-symbol-usage" /><use id="facebook-usage" xlink:href="#facebook" class="sprite-symbol-usage" /><use id="heart-usage" xlink:href="#heart" class="sprite-symbol-usage" /><use id="instagram-usage" xlink:href="#instagram" class="sprite-symbol-usage" /><use id="phone-usage" xlink:href="#phone" class="sprite-symbol-usage" /><use id="search-usage" xlink:href="#search" class="sprite-symbol-usage" /><use id="telegram-usage" xlink:href="#telegram" class="sprite-symbol-usage" /><use id="user-usage" xlink:href="#user" class="sprite-symbol-usage" /><use id="viber-usage" xlink:href="#viber" class="sprite-symbol-usage" /><use id="whatsapp-usage" xlink:href="#whatsapp" class="sprite-symbol-usage" /></svg>